<svg xmlns="http://www.w3.org/2000/svg" width="35" height="35" viewBox="0 0 35 35"><defs><style>.a{fill:#f2f2f2;}.b{fill:#f7b924;}</style></defs><g transform="translate(-1233 -13)"><circle class="a" cx="17.5" cy="17.5" r="17.5" transform="translate(1233 13)"/><g transform="translate(1231.002 -936.362)"><path class="b" d="M19.6,957.362a1.909,1.909,0,0,0-1.8,2v.725a4.893,4.893,0,0,0-3.6,4.675v2.6a8.479,8.479,0,0,1-2.05,4.6.6.6,0,0,0,.45,1h4.8v.331a2.2,2.2,0,0,0,4.4,0v-.331h4.8a.6.6,0,0,0,.45-1,8.479,8.479,0,0,1-2.05-4.6v-2.6a4.893,4.893,0,0,0-3.6-4.675v-.725a1.909,1.909,0,0,0-1.8-2Zm0,1.2c.324,0,.6.223.6.8v.6H19v-.6c0-.577.276-.8.6-.8Zm-1,2.6h2a3.754,3.754,0,0,1,3.2,3.6v2.612a8.4,8.4,0,0,0,1.587,4.388H13.811a8.4,8.4,0,0,0,1.587-4.388q0-1.3,0-2.612a3.754,3.754,0,0,1,3.2-3.6Zm.937.4a.6.6,0,1,0,.062,1.2h.769c.939.093,1.831,1.166,1.831,2.8a.6.6,0,1,0,1.2,0c0-2.1-1.22-3.853-2.95-4h-.912Zm3.256,4.787a.624.624,0,0,0-.594.613v.4a.6.6,0,1,0,1.2,0v-.4A.624.624,0,0,0,22.791,966.349ZM18.6,972.962h2v.331a1.01,1.01,0,0,1-2,0Z"/></g></g></svg>