<svg xmlns="http://www.w3.org/2000/svg" width="88.875" height="50.983" viewBox="0 0 88.875 50.983"><defs><style>.a{fill:rgba(255,255,255,0.4);}.b,.c,.d,.e{fill:#fff;}.c{fill-rule:evenodd;}.d{font-size:16px;}.d,.e{font-family:Montserrat-SemiBold, Montserrat;font-weight:600;}.e{font-size:7px;}</style></defs><g transform="translate(-3238 584.874)"><g transform="translate(3259.014 -584.874)"><path class="a" d="M81.115,163.758c0,.773-7.361,1.4-16.442,1.4s-16.442-.625-16.442-1.4,7.361-1.4,16.442-1.4S81.115,162.985,81.115,163.758Z" transform="translate(-44.375 -135.645)"/><path class="b" d="M74.193,72.116a4.491,4.491,0,0,1-2.454-.476,18.681,18.681,0,0,1-3.065-2.768c1.048-.589.97-2.351.853-3.128a4.6,4.6,0,0,0-1.316.733,8.363,8.363,0,0,0-.053-2.042A6.23,6.23,0,0,0,65.8,65.917a7.086,7.086,0,0,0-.669-.539,12.786,12.786,0,0,0-6.671-2.284c-2.419-.055-12.788-.358-17.2-.272-2.012.04-6.3,1.008-7.283,5.33-.08.059-.164.122-.255.183l-.006,0a2.791,2.791,0,0,1-1.631.53,1.51,1.51,0,0,1-1.105-.453,1.813,1.813,0,0,1-.455-1.347,1.348,1.348,0,0,1,1.368-1.394.91.91,0,0,1,.968.956.635.635,0,0,1-.175.5.687.687,0,0,1-.552.116.376.376,0,0,1-.288-.284.178.178,0,0,1,.093-.208.3.3,0,0,0-.318-.514.773.773,0,0,0-.366.844.973.973,0,0,0,.794.76,1.268,1.268,0,0,0,1.034-.257,1.2,1.2,0,0,0,.383-.956,1.516,1.516,0,0,0-1.572-1.562,1.942,1.942,0,0,0-1.97,1.975,2.412,2.412,0,0,0,.621,1.791,2.107,2.107,0,0,0,1.541.638,3.345,3.345,0,0,0,1.747-.493,7.833,7.833,0,0,0,1.08,5.239c.128.309.282.621.41.895.547,1.17,1.621,2.01,1.5,2.947a6.322,6.322,0,0,0-.1,2.539c.215,1.191,1.015,4.759,1.015,4.759h2.4c-.053-.1-.147-.3-.263-.554h2.008a20.2,20.2,0,0,1-1.6-4.277,16.765,16.765,0,0,1,1.023-2.608,36.6,36.6,0,0,0,10.085.665,17.564,17.564,0,0,0,4.313-.867c.615,1.431,3.174,7.639,3.174,7.639H61.11c.263,0,.181-.145.044-.347h.861c.3,0,.08-.221-.082-.484a9.381,9.381,0,0,1-.907-2.806,47.669,47.669,0,0,1,.139-4.783c.269-.025.522-.051.747-.078,1.328-.16,3.562-.32,4.89-.32a11.807,11.807,0,0,0,5.475-1.328c1.781-1.036,2.073-1.381,2.073-1.621V72.263A.147.147,0,0,0,74.193,72.116ZM38.54,81.086a1.4,1.4,0,0,1,.067-.335c.124.61.293,1.391.446,2.105A6.576,6.576,0,0,1,38.54,81.086Zm30.026-9.942a.328.328,0,1,1,.328-.328A.329.329,0,0,1,68.566,71.144Z" transform="translate(-29.918 -57.048)"/><g transform="translate(38.1 0)"><path class="b" d="M211.577,36.658a.558.558,0,0,1-.653-.427.541.541,0,0,1,.421-.644,6.868,6.868,0,0,1,8.2,5.743.539.539,0,0,1-.461.617.557.557,0,0,1-.625-.467,5.758,5.758,0,0,0-6.886-4.821Z" transform="translate(-210.912 -35.447)"/><path class="b" d="M213.077,46.622a.558.558,0,0,1-.653-.427.541.541,0,0,1,.421-.644,4.89,4.89,0,0,1,5.839,4.088.539.539,0,0,1-.461.617.557.557,0,0,1-.625-.467,3.78,3.78,0,0,0-4.522-3.166Z" transform="translate(-212.097 -43.346)"/><path class="b" d="M214.587,56.588a.558.558,0,0,1-.653-.427.541.541,0,0,1,.421-.644,2.909,2.909,0,0,1,3.473,2.433.539.539,0,0,1-.461.617.557.557,0,0,1-.625-.467,1.805,1.805,0,0,0-2.156-1.511Z" transform="translate(-213.289 -51.249)"/><path class="c" d="M216.388,65.885a.67.67,0,0,1,.768.539.649.649,0,0,1-.53.758.67.67,0,0,1-.768-.539A.646.646,0,0,1,216.388,65.885Z" transform="translate(-214.807 -59.47)"/></g></g><g transform="translate(3238 -555.363)"><text class="d" transform="translate(0 17.472)"><tspan x="0" y="0">Porklogic</tspan></text><text class="e" transform="translate(77.875 7)"><tspan x="0" y="0">TM</tspan></text></g></g></svg>