<svg xmlns="http://www.w3.org/2000/svg" width="35" height="35" viewBox="0 0 35 35"><defs><style>.a{fill:#f2f2f2;}.b{fill:#f7b924;}</style></defs><g transform="translate(-1183 -13)"><circle class="a" cx="17.5" cy="17.5" r="17.5" transform="translate(1183 13)"/><g transform="translate(1195 22)"><circle class="b" cx="1.5" cy="1.5" r="1.5" transform="translate(4 15)"/><path class="b" d="M10.5,5.25A5.25,5.25,0,1,0,0,5.25a1.5,1.5,0,1,0,3,0A2.25,2.25,0,1,1,5.25,7.5,1.5,1.5,0,0,0,3.75,9v3.375a1.5,1.5,0,0,0,3,0v-2.1A5.257,5.257,0,0,0,10.5,5.25Z"/></g></g></svg>